<?xml version="1.0" standalone="no"?>
<!DOCTYPE svg PUBLIC "-//W3C//DTD SVG 20010904//EN"
 "http://www.w3.org/TR/2001/REC-SVG-20010904/DTD/svg10.dtd">
<svg version="1.0" xmlns="http://www.w3.org/2000/svg"
 width="270.000000pt" height="270.000000pt" viewBox="0 0 270.000000 270.000000"
 preserveAspectRatio="xMidYMid meet">
<metadata>
Created by potrace 1.11, written by Peter Selinger 2001-2013
</metadata>
<g transform="translate(0.000000,270.000000) scale(0.100000,-0.100000)"
fill="#000000" stroke="none">
<path d="M7 2683 c-4 -3 -7 -609 -7 -1345 l0 -1338 159 0 160 0 4 33 4 32 1
-32 c2 -29 5 -33 31 -33 29 0 29 0 36 75 4 41 9 75 11 75 4 0 328 -83 404
-103 30 -9 75 -22 99 -31 37 -14 107 -16 482 -16 l439 0 6 27 c4 16 17 66 31
113 26 91 41 190 28 190 -4 0 -31 -13 -59 -29 -74 -41 -167 -76 -281 -104
-160 -40 -256 -50 -430 -45 -88 2 -149 1 -135 -3 14 -4 46 -7 73 -8 26 -1 47
-4 47 -8 -1 -18 -27 -38 -50 -40 -41 -4 -164 -13 -178 -13 -7 0 -10 -5 -7 -10
4 -6 11 -8 16 -5 5 4 9 2 9 -3 0 -6 -7 -13 -16 -16 -8 -3 -13 -2 -10 2 2 4
-12 8 -32 10 -21 1 -38 7 -40 12 -2 6 -14 10 -27 10 -26 0 -169 32 -258 57
-54 16 -58 19 -53 43 3 14 3 19 0 13 -9 -21 -23 -15 -17 7 3 12 -1 22 -9 25
-11 5 -16 25 -17 76 -2 70 -2 70 21 59 20 -10 20 -9 -4 12 -25 22 -26 27 -32
158 -8 208 -33 429 -92 816 -10 65 -13 123 -8 163 7 68 20 77 52 36 28 -36 33
-20 17 55 -24 115 -29 247 -12 320 19 81 92 272 140 365 34 67 36 68 42 40 3
-17 21 -73 39 -125 27 -80 35 -94 52 -92 25 5 30 14 48 92 8 36 29 105 46 153
25 69 38 91 60 102 16 8 35 22 44 30 9 9 16 12 16 6 0 -6 5 -11 11 -11 5 0 7
5 4 10 -3 6 -2 10 3 10 9 0 21 -65 28 -152 1 -21 8 -63 15 -94 11 -50 15 -55
36 -51 20 4 23 0 25 -27 2 -38 17 94 17 147 0 64 43 202 64 205 115 18 140 14
155 -25 6 -16 15 -84 21 -153 10 -126 39 -270 53 -270 4 0 5 7 2 15 -5 13 -3
13 21 1 16 -8 32 -21 36 -28 5 -8 9 11 9 47 0 94 20 274 38 335 l15 55 22
-100 c29 -133 67 -259 98 -326 24 -53 38 -134 53 -304 4 -51 9 -73 14 -60 6
16 9 11 15 -23 5 -33 13 -46 33 -55 20 -9 26 -9 30 1 2 6 8 12 13 12 6 0 6 -8
-1 -19 -5 -11 -10 -23 -10 -28 1 -4 10 9 21 30 11 21 17 43 13 49 -4 6 -3 8 3
5 10 -6 73 118 88 173 4 14 11 30 15 35 12 17 59 167 66 213 4 23 11 45 15 48
5 3 9 17 9 32 1 43 37 213 48 224 13 13 32 2 32 -17 0 -17 109 -241 137 -281
11 -16 37 -78 58 -139 21 -60 58 -150 82 -200 l44 -89 -21 -111 c-11 -60 -23
-121 -25 -135 -3 -14 -9 -77 -15 -140 -24 -272 -79 -591 -119 -694 -29 -76
-77 -150 -125 -195 -14 -13 -23 -27 -21 -31 2 -4 -4 -50 -15 -103 -17 -86 -45
-167 -85 -249 l-13 -27 419 -1 419 -1 0 245 c0 240 -11 353 -33 339 -11 -6
-10 1 17 377 12 162 15 365 13 965 l-2 760 -1341 3 c-737 1 -1344 -1 -1347 -5z
m1933 -2597 c0 -3 -4 -8 -10 -11 -5 -3 -10 -1 -10 4 0 6 5 11 10 11 6 0 10 -2
10 -4z m-190 -24 c0 -10 -7 -27 -15 -38 -14 -18 -15 -17 -9 11 10 47 24 62 24
27z m165 -12 c3 -5 1 -10 -4 -10 -6 0 -11 5 -11 10 0 6 2 10 4 10 3 0 8 -4 11
-10z"/>
<path d="M805 2360 c3 -5 11 -10 16 -10 6 0 7 5 4 10 -3 6 -11 10 -16 10 -6 0
-7 -4 -4 -10z"/>
<path d="M554 1833 c-54 -3 -65 -8 -94 -38 l-34 -35 57 0 57 0 -19 -39 c-52
-101 -84 -344 -52 -397 5 -11 11 -15 11 -10 0 5 9 1 20 -9 20 -18 21 -18 54
14 36 35 107 61 165 61 66 0 144 -27 173 -60 15 -16 30 -30 33 -30 3 0 18 15
34 32 39 44 56 150 48 300 l-7 109 85 -7 c47 -4 85 -4 85 0 0 4 -6 22 -14 40
-13 31 -19 34 -82 46 -63 11 -375 31 -434 28 -14 -1 -52 -3 -86 -5z"/>
<path d="M1822 1670 c-22 -28 -22 -29 -3 -35 19 -6 19 -8 4 -43 -30 -70 -52
-162 -59 -245 -3 -45 -3 -79 1 -75 5 4 13 0 20 -9 10 -14 18 -14 64 -3 60 14
92 8 142 -26 31 -21 38 -23 62 -11 20 9 31 25 43 67 20 68 44 212 44 264 l0
38 54 -6 53 -7 -10 35 c-11 34 -13 35 -97 50 -244 44 -287 45 -318 6z"/>
<path d="M505 325 c22 -14 45 -25 50 -25 6 0 -10 11 -34 25 -56 32 -68 32 -16
0z"/>
<path d="M620 266 c14 -9 32 -15 40 -15 13 0 13 1 0 8 -8 5 -26 12 -40 15
l-25 7 25 -15z"/>
<path d="M928 163 c7 -3 16 -2 19 1 4 3 -2 6 -13 5 -11 0 -14 -3 -6 -6z"/>
</g>
</svg>
